<svg xmlns="http://www.w3.org/2000/svg" viewBox="0 0 166.86 543.95"><defs><style>.cls-1{fill:#fff;}</style></defs><title>Risorsa 1</title><g id="Livello_2" data-name="Livello 2"><g id="Livello_1-2" data-name="Livello 1"><path class="cls-1" d="M132.63,340c.57,4.21,1.13,8.32,1.69,12.43q1.8,13.19,3.61,26.37c.72,5.22,1.4,10.45,2.14,15.68.55,3.85-1.2,6-5.07,6h-4.07a9.8,9.8,0,0,0-.27,3.66c-.15,7-.28,13.93-1.86,20.74a14,14,0,0,0,.38,8.09,68.59,68.59,0,0,1,2.93,17,168.9,168.9,0,0,1-2.35,43.47c-1.26,6.85-2.92,13.6-6.29,19.79a2.48,2.48,0,0,0,.09,2.45,36.45,36.45,0,0,1,2.87,16.14,17.53,17.53,0,0,1-1.52,6.74c-1.63,3.49-4.26,5.47-8.28,5.42-4.8-.07-9.6-.1-14.4,0-4.55.1-7.54-2.12-9.53-6a21.06,21.06,0,0,1-2-10,26.9,26.9,0,0,1,3.6-13.75,3.51,3.51,0,0,0,.38-2.73,232.31,232.31,0,0,1-4.4-44.32,156.7,156.7,0,0,1,1.1-23.22A53.54,53.54,0,0,1,94.75,430a5,5,0,0,0,.31-2.79c-1.17-8.07-2.39-16.13-2.87-24.28,0-.32-.08-.64-.08-1,0-1.09-.44-1.51-1.59-1.49-4,.06-8,.05-12,0-1.1,0-1.51.33-1.58,1.49-.46,8-1.55,15.91-2.75,23.81a10.34,10.34,0,0,0,.63,5.59,53.19,53.19,0,0,1,3.07,14c1.64,14.77,1.09,29.54-.3,44.3a170.62,170.62,0,0,1-3.31,22.27,3.17,3.17,0,0,0,.65,2.43A28,28,0,0,1,77.48,535,13.88,13.88,0,0,1,75,540.16a9.06,9.06,0,0,1-7.42,3.76c-5.12,0-10.24,0-15.36,0-3.8,0-6.35-1.87-7.93-5.18A21.19,21.19,0,0,1,42.62,528a36.13,36.13,0,0,1,3-12.53,2.29,2.29,0,0,0,0-2.24c-3.56-6.55-5.2-13.71-6.52-21a170.63,170.63,0,0,1-2.34-38.95c.37-7.91,1.3-15.78,4.07-23.29a3.32,3.32,0,0,0,.13-2.11c-2.17-8.11-2.45-16.41-2.46-24.74,0-2.9.3-2.69-2.72-2.69-1.44,0-2.89-.1-4.32,0a4.61,4.61,0,0,1-4.8-5.48c.53-3.48,1-7,1.55-10.44q2.29-15.52,4.6-31.07l1.71-11.62a4.63,4.63,0,0,0,.1-2,51.76,51.76,0,0,1-5.66-.45c-9-1.73-20.52-11.58-19.68-25.06a20.1,20.1,0,0,1,1.48-6.51,3.22,3.22,0,0,0-.05-2.93C2.43,287.78-.38,269.54,0,250.66A144.06,144.06,0,0,1,2.5,227.31a11.44,11.44,0,0,0,.16-3.79,127.1,127.1,0,0,1-1-24.66C2.4,185.58,5.51,173,12.81,161.64a55.15,55.15,0,0,1,25-21.28c4.3-1.85,8.83-2.06,13.35-2.55a31.07,31.07,0,0,0,5.4-1.06,6.23,6.23,0,0,0,4.19-3.6,59.56,59.56,0,0,0,5.39-23,2.16,2.16,0,0,0-1.2-2.1C52.65,100.15,46,88.51,43.33,74.4a52.77,52.77,0,0,1-.51-17.19A10.33,10.33,0,0,0,42.27,53c-2.24-8.25.28-15,7.42-19.76.33-.23.71-.37.86-.8-5-10-4.36-19,1.82-25.33,1,1.2,1,2.83,2.05,4.32C56,5.81,57.86.62,64.84,0a11.09,11.09,0,0,1-1.09,3.25c-2.21,6-.12,9.47,6.17,10.3,5,.67,9.87-.34,14.73-1.32A24.31,24.31,0,0,1,94.41,12c4,.79,7.14,2.69,9.08,6.37.22.42.46.84.71,1.25.49.78,1.37,1.07,2,1.62,1,.81,1.62-.14,2.33-.48,4.37-2.14,8.36-1.36,11.57,2.56a42.78,42.78,0,0,1,8.69,17.45,23.94,23.94,0,0,1,.48,9,10.43,10.43,0,0,1-2.3,5.7,2.78,2.78,0,0,0-.65,2.39,59.91,59.91,0,0,1,0,11.75c-1.36,13.09-6.28,24.53-16,33.69a36.26,36.26,0,0,1-8.16,5.86,2.24,2.24,0,0,0-1.37,2.24A46.42,46.42,0,0,0,106.46,134a5.94,5.94,0,0,0,3.73,2.78,30.45,30.45,0,0,0,8.5,1.37,33.26,33.26,0,0,1,15,4.52c13.07,7.2,21.66,18.18,26.74,32.05,3.78,10.34,5.06,21.09,4.94,32a130.5,130.5,0,0,1-1.33,17.44c-.23,1.57.3,3,.55,4.49,3.48,20.61,3.21,41.07-2.66,61.27a86,86,0,0,1-5.68,14.74,3.77,3.77,0,0,0-.12,3.37A21.2,21.2,0,0,1,153.9,328a25.13,25.13,0,0,1-17.13,11.66C135.45,339.86,134.09,339.86,132.63,340ZM75.43,112.69a2.72,2.72,0,0,0-.29.58c0,.47-.06,1-.1,1.43a67.74,67.74,0,0,1-6.31,23A14.16,14.16,0,0,1,60.58,145a30.22,30.22,0,0,1-8.64,1.87c-5.15.33-10.15,1.13-14.67,3.87a57.13,57.13,0,0,0-6,4c-8.92,7-14.48,16.29-17.61,27.08-3.64,12.59-3.61,25.41-2.24,38.3.25,2.36.91,4.65.41,7.12A132.81,132.81,0,0,0,10.2,270.9a94.74,94.74,0,0,0,9.89,32.36,5.79,5.79,0,0,1,0,6.09c-5.86,10.41,4,20.22,11.55,21.31a4.35,4.35,0,0,0,.72,0,3.88,3.88,0,0,0,4.26-3.61c.29-1.82.47-3.65.87-5.44A23.9,23.9,0,0,0,37,310.32,229.78,229.78,0,0,1,31.91,282c-1.31-10.23-2.16-20.5-2.63-30.82A284.2,284.2,0,0,1,31,201.88a43,43,0,0,1,.9-5.19,4.19,4.19,0,0,1,3.8-3.19,4.33,4.33,0,0,1,4.45,2.22,5,5,0,0,1,.49,3.48c-.53,4-1.11,7.92-1.49,11.9a272.23,272.23,0,0,0-.95,34.27,359.86,359.86,0,0,0,3.39,39.89c1.14,8.07,2.59,16.09,4.48,24,.32,1.35.81,1.78,2.21,1.77q35.16-.06,70.32,0c1.38,0,1.88-.41,2.21-1.78a282.61,282.61,0,0,0,5.6-32.82c1.15-9.77,1.85-19.58,2.21-29.41a282.34,282.34,0,0,0-.58-32.13c-.42-5.42-1-10.81-1.9-16.19a4.56,4.56,0,0,1,9-1.61c.16.7.29,1.41.39,2.12A253.61,253.61,0,0,1,137.9,238a370.58,370.58,0,0,1-2.77,42.1,272.13,272.13,0,0,1-5.68,32.07,6.06,6.06,0,0,0-.31,2.12c.61,4.76,1.33,9.5,1.94,14.26a2.32,2.32,0,0,0,2,2,5.31,5.31,0,0,0,2.38,0c7.81-1.46,17.09-11.35,11.08-21.57a5.15,5.15,0,0,1,0-5.44c7.29-13.76,10.42-28.59,11-44a133.74,133.74,0,0,0-2.67-32.67,8.68,8.68,0,0,1-.06-3.09,122.14,122.14,0,0,0,1.38-17.92c0-10.57-1.3-20.9-5.43-30.72-4.76-11.31-12.31-20.1-23.49-25.52a23.75,23.75,0,0,0-9-2.42A40.47,40.47,0,0,1,106.16,145a14.22,14.22,0,0,1-7.9-7,60.48,60.48,0,0,1-5.53-15.77,72.52,72.52,0,0,1-1-9.15A39.2,39.2,0,0,1,75.43,112.69ZM36.5,391.15a7.24,7.24,0,0,0,1,.17q20.4,0,40.8,0c1.58,0,1.61,0,1.61-1.79q0-11.16,0-22.32,0-8,0-16.08c0-2.12,0-2.12-2-2.14H72.38c-2.85,0-4.49-1.3-4.48-3.49s1.62-3.5,4.5-3.52c4.24,0,8.48,0,12.72,0s8.64-.05,13,0a3.49,3.49,0,0,1,3.73,3.55c0,2-1.55,3.38-3.83,3.42s-4.64,0-7,0c-1.94,0-2,0-2,2q0,19.2,0,38.4c0,1.92,0,1.95,2,1.95h37.44c1.94,0,2,0,1.69-2-.86-6.26-1.75-12.51-2.61-18.76q-2-14.85-4-29.7c-.85-6.26-1.67-12.52-2.54-18.77-.26-1.88-.31-1.88-2.22-1.9H49.64a13.81,13.81,0,0,1-1.44,0c-1-.1-1.35.38-1.49,1.36-1.25,8.7-2.54,17.4-3.82,26.09q-2.3,15.54-4.58,31.07C37.71,382.78,37.12,386.89,36.5,391.15ZM58.08,39.92a7.35,7.35,0,0,0-.59.74c-.28.48-.54,1-.79,1.47a47.77,47.77,0,0,0-3.37,35c2.35,8.65,6.76,16,14,21.52,10.87,8.25,24,7.92,34.44,0a34.36,34.36,0,0,0,9.18-10.33c7.91-13.8,8.62-28.14,3-42.91a6,6,0,0,0-2-2.6,20.31,20.31,0,0,1-5.26-6.13c-2.09-3.85-6-5.3-10.23-4.22a17.93,17.93,0,0,0-5,2.31,56.53,56.53,0,0,1-14.52,6.72C70.49,43.32,64.16,43.83,58.08,39.92Zm-.32,360.54c-2.88,0-5.76.05-8.63,0-1.14,0-1.57.32-1.53,1.49.1,3.27,0,6.56.2,9.83.34,5.26.74,10.53,2.55,15.55a5.32,5.32,0,0,1-.28,4.19,41.72,41.72,0,0,0-2.87,10.11A122.3,122.3,0,0,0,45.69,465a145.81,145.81,0,0,0,3.92,32.77c1,4.28,2.17,8.59,4.79,12.19,1.85,2.56,1.94,4.72.43,7.48A24.07,24.07,0,0,0,52,533c.28,1.8.33,1.82,2.12,1.83,3.84,0,7.68,0,11.52,0,2.23,0,2.58-.23,3.11-2.4a16.94,16.94,0,0,0-2.07-13.83c-1.88-2.81-2.63-5.35-1.29-8.44a3.26,3.26,0,0,0,.09-.47,196.08,196.08,0,0,0,3.48-26.11c1-12.46,1.29-24.91-.16-37.35-.59-5-1.41-10-3.76-14.53a5.27,5.27,0,0,1-.42-3.27c.55-3.8,1.14-7.59,1.63-11.39.64-5,1.25-10,1.6-15,.08-1.13-.23-1.58-1.43-1.55C63.52,400.51,60.64,400.46,57.76,400.46Zm65.69,62.13a95.83,95.83,0,0,0-.49-12.22c-.56-6.61-1.4-13.19-4.17-19.34a4.65,4.65,0,0,1-.15-3.5c2.77-8.33,2.72-17,2.91-25.61,0-1.2-.47-1.48-1.56-1.47q-8.64,0-17.27,0c-1.14,0-1.58.33-1.45,1.53.33,3.1.47,6.22.85,9.31.66,5.31,1.42,10.61,2.16,15.91a8.67,8.67,0,0,1-.84,5.79,18.43,18.43,0,0,0-1.51,4.28c-2.37,9.06-2.58,18.34-2.59,27.61a242.57,242.57,0,0,0,1.62,28,129.46,129.46,0,0,0,3,17.95,7.91,7.91,0,0,1-1.17,7.16,17.2,17.2,0,0,0-2.3,14.68c.55,2.06.74,2.12,2.82,2.13h10.79c2.9,0,3-.08,3.22-3.06,0-.32,0-.64,0-1a26.19,26.19,0,0,0-3.42-14c-1.05-1.83-1.41-3.66-.12-5.39,2.84-3.81,4.26-8.2,5.43-12.69C122.31,486.85,123.24,474.76,123.45,462.59Z"/><path class="cls-1" d="M69.54,226.61c-13-.32-22-7.7-25.19-20.32a10.28,10.28,0,0,1-.54-2.82,2.8,2.8,0,0,1,2.34-2.88,2.85,2.85,0,0,1,3.29,1.78,16.48,16.48,0,0,1,.61,2.32,26,26,0,0,0,2.05,5.61,17.91,17.91,0,0,0,13.75,10c1.82.31,3.65.36,5.49.49a2.76,2.76,0,0,1,2.61,2.4,2.84,2.84,0,0,1-1.27,2.9,2.6,2.6,0,0,1-1.57.48Z"/><path class="cls-1" d="M97.35,226.6c-.44,0-1.09.05-1.72,0a2.9,2.9,0,0,1,0-5.79c1.59-.14,3.18-.16,4.77-.38C108,219.34,113,215.11,115.72,208c.63-1.63,1-3.36,1.5-5,.57-1.9,1.8-2.71,3.55-2.37a2.91,2.91,0,0,1,2.18,3.68C120.1,218,111.51,226.09,97.35,226.6Z"/><path class="cls-1" d="M103.74,213.58a4.24,4.24,0,1,1,.22-8.47,4.32,4.32,0,0,1,4.06,4.23A4.27,4.27,0,0,1,103.74,213.58Z"/><path class="cls-1" d="M62.91,205.11a4.38,4.38,0,0,1,4.37,4.19,4.25,4.25,0,1,1-4.37-4.19Z"/></g></g></svg>