<svg xmlns="http://www.w3.org/2000/svg" viewBox="0 0 242.7 554.53"><defs><style>.cls-1{fill:#fff;}</style></defs><title>Risorsa 1</title><g id="Livello_2" data-name="Livello 2"><g id="Livello_1-2" data-name="Livello 1"><path class="cls-1" d="M122.33,546.36c-.44.4-.85.77-1.25,1.15-7.83,7.25-16.89,8.71-26.7,5.18A16.23,16.23,0,0,1,83.46,540a16.79,16.79,0,0,1,.85-9.2,3.87,3.87,0,0,0,0-3C78,511.39,73.64,494.38,69.77,477.24c-3-13.49-5.6-27.07-7.51-40.77-1.55-11.09-2.82-22.21-2.53-33.45a4.32,4.32,0,0,0-.92-2.87c-1.77-2.37-3.51-4.76-5.28-7.14a116.37,116.37,0,0,1-19.08-37.88c-.33-1.14-.74-1.77-2-1.91-9.17-1-16.55-7.89-18.8-17.69a26.71,26.71,0,0,1,1.65-17.35,3,3,0,0,0,0-2.88A136.28,136.28,0,0,1,1,267.34c-2.94-27.6.3-54.48,10.89-80.18,13.5-32.78,37.51-54.65,70.91-66.31a22.58,22.58,0,0,0,7.23-3.64A11.83,11.83,0,0,0,94.39,105a6.26,6.26,0,0,0-1.75-3.3c-8.32-8.58-12.83-19-14.31-30.72a52.42,52.42,0,0,1,0-14.1,9.61,9.61,0,0,0-.53-4C76.09,46.69,77,41,81.45,36.15a21.23,21.23,0,0,1,4.66-3.64c-4.94-10.88-4.4-18.71,1.74-25.58,1,1.2,1,2.84,1.87,4.08.73-.21.6-.87.73-1.38a17.4,17.4,0,0,1,2.34-5.48A8.7,8.7,0,0,1,100.35,0a5.66,5.66,0,0,1-.69,2.15,14.81,14.81,0,0,0-1.18,4.13c-.26,3.28,1,5.4,4.09,6.49a20.58,20.58,0,0,0,8.3.77c4.08-.27,8-1.3,12.07-1.9a20,20,0,0,1,8.54.56,11.71,11.71,0,0,1,7.5,5.91c.22.42.45.85.71,1.25a7.26,7.26,0,0,0,2.24,1.76c1,.7,1.61-.31,2.33-.64,3.63-1.67,7.28-1.7,10,1.28,7.12,7.83,11.52,16.85,10.58,27.81a9.6,9.6,0,0,1-2.1,5.52,3.43,3.43,0,0,0-.81,2.83A56.56,56.56,0,0,1,161,76a50.79,50.79,0,0,1-13.38,25.55,6.31,6.31,0,0,0-1.76,5.67,14.13,14.13,0,0,0,5.73,9.37,27.13,27.13,0,0,0,8.29,4.2,121.42,121.42,0,0,1,27.94,13.59c21.22,14,35.79,33.25,44.74,56.9a163.7,163.7,0,0,1,8.7,35.78,167.66,167.66,0,0,1,1.36,29.19,140.54,140.54,0,0,1-14.81,58.32,4.44,4.44,0,0,0-.1,4.19,26.41,26.41,0,0,1,.61,19.43c-3.2,9.27-10.77,14.85-20.56,15.25-1.05,0-1.85-.06-2.24,1.43-4,15.22-10.84,29.16-19.46,42.26a6.46,6.46,0,0,0-1.12,4.21,146.21,146.21,0,0,1-1.06,23.94,478,478,0,0,1-8.91,51.94c-3.86,17.16-8.25,34.16-14.53,50.62a3.61,3.61,0,0,0-.08,2.74c4,10.91-2.27,20.7-13.18,23.11-9.1,2-17.3.1-24-6.71C122.87,546.79,122.61,546.6,122.33,546.36ZM40.48,333.47l-.17-.31c0,.09-.1.19-.08.27s.17.13.29,0c-.47,1.92.18,3.75.45,5.61.61,4.26,1.12,8.56,2.06,12.75A74.11,74.11,0,0,0,47.23,364c4.41,10.66,10.86,20.08,17.81,29.18a2.25,2.25,0,0,0,2.09.81q6,0,12,0c10.32.07,20.64.12,31,.29a2.72,2.72,0,0,0,3-2c1.13-2.72,2.51-5.35,3.78-8a6.39,6.39,0,0,1,1.46-2.17,4.51,4.51,0,0,1,6.87,1c2,3.05,4,6.15,5.92,9.31a3.2,3.2,0,0,0,3.24,1.81c9.51-.15,19-.17,28.55-.24,4.16,0,8.32-.12,12.47-.05a3,3,0,0,0,2.86-1.62,177.66,177.66,0,0,0,9.87-17.27C194.68,361.71,199,347.67,200,332.7c0-.49.37-1.08-.35-1.54a108.92,108.92,0,0,1-8.39,7.1c-18.93,14.16-40.43,21.27-63.82,23a125,125,0,0,1-37.18-2.78c-18.09-4.12-34.38-11.84-48.39-24.15C41.44,334,41.16,333.38,40.48,333.47Zm170,10.37a12.09,12.09,0,0,0,8.52-7.16,17.12,17.12,0,0,0-.82-16.34,6.53,6.53,0,0,1,0-7.15,129.61,129.61,0,0,0,15.17-55,161.38,161.38,0,0,0-6.16-53.83c-4.55-15.86-11.78-30.36-22.55-43-12.95-15.16-29.12-25.51-47.89-31.93a38,38,0,0,1-7.65-3.4c-5.9-3.58-10.15-8.46-12-15.26-.09-.35,0-.82-.64-1a37.33,37.33,0,0,1-16.05,3.89,38.2,38.2,0,0,1-16.37-3.62,3,3,0,0,0-.63,1.7,20.35,20.35,0,0,1-6.23,11.36A29.27,29.27,0,0,1,86,129.43a111.35,111.35,0,0,0-27.62,13.68c-19.91,13.67-33.15,32.33-40.93,55a158.28,158.28,0,0,0-7.81,38.66,147.52,147.52,0,0,0,1.21,35.63,128.39,128.39,0,0,0,14,41.57,5.28,5.28,0,0,1-.19,5.86A17.22,17.22,0,0,0,22.28,332C23,337,25.35,340.91,30,343.18c.48.23,1,.58,1.65.12-.26-1.82-.52-3.7-.78-5.58-.62-4.6-.64-9.25-1.15-13.86-1-9.14-1.93-18.28-2.59-27.45C26.27,284.2,25.85,272,26,259.72c.19-11.85,1-23.64,3.43-35.27A61.39,61.39,0,0,1,36.05,206a28.33,28.33,0,0,1,6.19-7.59,5.13,5.13,0,0,1,2.52-1.3,4.62,4.62,0,0,1,4.83,2.39,4.33,4.33,0,0,1-1,5.46,24.48,24.48,0,0,0-5.8,7.85,66.36,66.36,0,0,0-5.18,17.64,198.88,198.88,0,0,0-2.48,33,490.31,490.31,0,0,0,2.93,52.67,4.39,4.39,0,0,0,1.22,2.51,83.26,83.26,0,0,0,11.84,11.53c17.16,13.63,36.95,20.31,58.58,21.95a115.72,115.72,0,0,0,36.2-2.85c21.64-5.23,40.4-15.34,54.78-32.74a4.12,4.12,0,0,1,2.42-1.84c1.66-.23,1.89-1.25,2-2.65.55-6.94,1.21-13.86,1.63-20.81,1.09-18.14,1.48-36.28-.67-54.38a87.43,87.43,0,0,0-4.31-19.62c-1.61-4.47-3.63-8.69-7.31-11.92-2.19-1.91-2.42-4.6-.75-6.6s4.5-2.15,6.82-.23a25.85,25.85,0,0,1,4.22,4.58,44.91,44.91,0,0,1,6.18,12.65c3.16,9.64,4.44,19.63,5.17,29.68a334.64,334.64,0,0,1-.06,43.88q-1.46,25-5,49.86C210.77,340.67,210.22,342.22,210.52,343.84Zm-56.25,59.3v.26H134.61c-1.87,0-1.89,0-2.49,1.82a106.39,106.39,0,0,0-3.3,14.23c-1.61,8.8-2.8,17.68-3.68,26.59-.56,5.64-1.39,11.28-1.07,17,.51,9.34.57,18.7.64,28.05.06,9.92-.11,19.83-.75,29.73a4.61,4.61,0,0,0,.3,2.58,21.45,21.45,0,0,1,1.83,13.54c-.14.91-.11,1.5,1,1.74a4.77,4.77,0,0,1,2.33,1.62c4.63,5,10.39,6.05,16.68,4.26,5.76-1.64,7.73-6.43,5.22-11.87-.1-.22-.22-.43-.34-.64a5.16,5.16,0,0,1-.12-4.83c.55-1.24,1-2.52,1.5-3.79,5.73-15.29,9.81-31.06,13.42-46.95a466,466,0,0,0,9-51.92,157.13,157.13,0,0,0,1.17-19.15c0-2.74-.16-2.24-2.18-2.25Zm-38.8,82.21c.06-9-.28-18.14-.75-27.32-.64-12.7-1.64-25.37-3.22-38-.63-5-1.36-10-2.38-14.91-.35-1.7-.36-1.7-2.2-1.73h-2.87c-11.2-.09-22.39-.15-33.59-.27-1.21,0-1.82.29-1.65,1.59,0,.4,0,.8,0,1.2,0,11.07,1.39,22,3,32.93q3.73,25,10,49.55c3.31,13.17,7,26.24,12.11,38.84a6.28,6.28,0,0,1-.47,5.49c-2.53,5.3-.58,10,5,11.77a16,16,0,0,0,13-1.12,11.9,11.9,0,0,0,4.15-16.56,6.21,6.21,0,0,1-1-4.06c.31-4.07.63-8.14.72-12.21C115.5,502.23,115.77,493.92,115.47,485.35ZM93.65,39.83a5,5,0,0,0-.53.59c-.29.48-.57,1-.82,1.47-6.81,13.9-7.07,28-.85,42.1a34.73,34.73,0,0,0,13.23,15.75c10.08,6.38,20.31,6.43,30.48.19a32.69,32.69,0,0,0,11.06-11.45c8.14-13.9,8.83-28.37,3.16-43.29a5.65,5.65,0,0,0-1.85-2.44,20.58,20.58,0,0,1-5.42-6.3c-2.1-3.82-6-5.22-10.27-4.1a16.66,16.66,0,0,0-4.76,2.21A57.81,57.81,0,0,1,114,40.89C107.06,43.1,100.2,44,93.65,39.83Zm28.23,355.48c-1.08,2.15-2,4.24-3.19,6.19a3.14,3.14,0,0,0-.49,2.41c.58,3.2,1.07,6.43,1.61,9.65,0,.35,0,.8.65.76,1-4.82,2-9.67,3.81-14.27a1.31,1.31,0,0,0,0-1.35A18.89,18.89,0,0,0,121.88,395.31Z"/><path class="cls-1" d="M79.43,249.63c-5.93-.11-10.75-1.52-14.86-4.94A14.93,14.93,0,0,1,60.3,239a3.16,3.16,0,0,1,1-4.07A3.06,3.06,0,0,1,65.8,236c2.9,5.87,8.06,7.28,14,7.31.8,0,1.6-.15,2.4-.13a3.1,3.1,0,0,1,.66,6.12A26.84,26.84,0,0,1,79.43,249.63Z"/><path class="cls-1" d="M161.15,249.61c-.58,0-1.63-.05-2.66-.19a3.11,3.11,0,0,1-3-3.36,3,3,0,0,1,3.46-2.84,22.14,22.14,0,0,0,7.61-.49c3.59-1,6.54-2.86,8.24-6.39a3.11,3.11,0,0,1,4.37-1.62c1.52.8,2,2.48,1.21,4.37a15.39,15.39,0,0,1-5.64,6.7A23,23,0,0,1,161.15,249.61Z"/><path class="cls-1" d="M120.49,329.85a6,6,0,0,1-6.08-5.79,5.9,5.9,0,0,1,5.74-6.1,5.95,5.95,0,1,1,.34,11.89Z"/><path class="cls-1" d="M162.14,219.26a5,5,0,1,1-5,5A5,5,0,0,1,162.14,219.26Z"/><path class="cls-1" d="M78.79,219.26a5,5,0,1,1-5.1,4.91A5,5,0,0,1,78.79,219.26Z"/></g></g></svg>