<svg xmlns="http://www.w3.org/2000/svg" viewBox="0 0 149.12 551.22"><defs><style>.cls-1{fill:#fff;}</style></defs><title>Risorsa 1</title><g id="Livello_2" data-name="Livello 2"><g id="Livello_1-2" data-name="Livello 1"><path class="cls-1" d="M22.79,337.89a22,22,0,0,1-5.68-.76A19.5,19.5,0,0,1,3.38,324.48c-2.6-7.06-2.53-14.1,1.31-20.81a4.66,4.66,0,0,0,.5-2.76c-.34-6.55-.62-13.1-1.05-19.64C3.65,273.85,3,266.44,2.46,259,1.66,247.77.79,236.53.34,225.26a267.81,267.81,0,0,1,.06-28c.58-9,1.7-18,4.72-26.58A37.68,37.68,0,0,1,17.93,152.5c4.71-3.59,9.5-7.07,14.25-10.58A127.4,127.4,0,0,0,48,128.7a40.29,40.29,0,0,0,7.3-9.76,21.33,21.33,0,0,0,2.28-7.28,1.77,1.77,0,0,0-1.1-2.06c-14-7.55-21.32-19.77-24.4-34.92A53.48,53.48,0,0,1,31.5,57a7.4,7.4,0,0,0-.32-3.29A19.14,19.14,0,0,1,30.34,45a16.65,16.65,0,0,1,7.51-11.49c1.49-1,1.51-1,.6-2.68A20.83,20.83,0,0,1,41,7c1.07,1.15,1,2.81,1.88,4,.8-.1.61-.8.73-1.27a17,17,0,0,1,2.46-5.69A8.64,8.64,0,0,1,53.51,0a9.13,9.13,0,0,1-.92,2.8,13.84,13.84,0,0,0-.93,3.46c-.31,3.39,1,5.51,4.24,6.6a20.69,20.69,0,0,0,8.06.73c4.09-.26,8-1.29,12.07-1.89a20.21,20.21,0,0,1,8.78.59,11.73,11.73,0,0,1,7.3,5.8c.27.49.52,1,.83,1.46A8.08,8.08,0,0,0,95,21.15c1,.76,1.63-.24,2.34-.58,4.06-1.95,8-1.45,10.89,2,5.69,6.65,9.4,14.27,10,23.15.22,3.63-.23,7.22-2.84,10.11-.61.66-.32,1.36-.26,2a61.21,61.21,0,0,1-.47,15.3c-2.3,13.54-8.28,24.93-19.45,33.29a27.74,27.74,0,0,1-5.11,3.1c-1.12.5-1.27,1.13-1,2.26a23.39,23.39,0,0,0,2.82,7.1,44.63,44.63,0,0,0,7.24,8.91,120.35,120.35,0,0,0,13.68,11.3c5,3.66,10,7.48,15.2,10.9,10.44,6.86,15.83,16.8,18.36,28.68a143.22,143.22,0,0,1,2.76,27.15c.26,14.09-.66,28.14-1.64,42.18-1.22,17.39-2.78,34.75-3.52,52.17a7.86,7.86,0,0,0,1,4.31c4.62,8.42,2.88,20.63-3.84,27.43a20.07,20.07,0,0,1-12.81,5.86c-.55.06-1.1.07-1.84.12a61.2,61.2,0,0,0,1.43,8.21c3.28,16.94,6.62,33.87,9.9,50.8.73,3.81-1.13,6.06-5,6.1-3.68,0-7.36,0-11,0-2.64,0-2.34-.27-2.37,2.23a155.06,155.06,0,0,1-1.53,20.31,34.66,34.66,0,0,0,.7,14.05c2.84,10.53,3.53,21.27,3.16,32.1a142.28,142.28,0,0,1-4.2,30.58c-1,3.95-2.6,7.72-3.45,11.71a50.23,50.23,0,0,0-.55,16.94c.52,4.07.94,8.1-.26,12.12a12.59,12.59,0,0,1-2.69,5,8.64,8.64,0,0,1-5.85,3,74.83,74.83,0,0,1-8.86,0,10.82,10.82,0,0,1-9-5.5,19.29,19.29,0,0,1-2.7-10.78,20.3,20.3,0,0,1,.92-6.39c2.85-8.43,2.67-16.9,1.12-25.56A234.81,234.81,0,0,1,82,459.23a75.75,75.75,0,0,1,2.78-20.84,39.91,39.91,0,0,0,.87-18.75,101.91,101.91,0,0,1-1.79-15c0-1.21-.36-1.67-1.64-1.66-5.2.07-10.4.06-15.59,0-1.14,0-1.48.34-1.54,1.49A159.16,159.16,0,0,1,63,421.62a35.35,35.35,0,0,0,.94,15.91c2.82,9.49,3.24,19.18,2.91,29-.45,13.69-2.39,27.22-4.66,40.71a42.73,42.73,0,0,0,1.4,19.9,25.56,25.56,0,0,1,.65,13.49A14.56,14.56,0,0,1,60,548.25a10.21,10.21,0,0,1-6.21,2.81,81.18,81.18,0,0,1-8.4.1c-4.52-.11-7.44-2.52-9.11-6.59a20.48,20.48,0,0,1-1.1-11.08A53.31,53.31,0,0,0,33,507.25c-3.13-9-4.5-18.45-5.28-27.95a139.94,139.94,0,0,1,0-24A76.4,76.4,0,0,1,30,441.4a40.48,40.48,0,0,0,1-17.34,121.21,121.21,0,0,1-1.33-18.64c0-2.63.35-2.38-2.48-2.39H17.09c-4.79,0-6.52-2.07-5.6-6.83,1.78-9.25,3.62-18.5,5.43-27.75q2.88-14.7,5.75-29.4C22.72,338.75,22.73,338.44,22.79,337.89Zm51.73-26.13h35.76c2,0,2,0,2-1.91.09-6.16.19-12.32.26-18.47.16-14.95.25-29.89.87-44.84.68-16.46.6-32.94.57-49.42,0-4.16,0-8.32.08-12.47a4.44,4.44,0,0,1,4.26-4.59,4.59,4.59,0,0,1,4.73,3.91,11,11,0,0,1,.11,2.15c0,5.68,0,11.36-.06,17-.11,13.43-.18,26.87-.41,40.3-.1,6.23-.71,12.45-.81,18.68-.24,15.19-.33,30.39-.47,45.58a36,36,0,0,0,.08,6.23c.74,4.57,1.8,9.08,2.68,13.63.15.74.39,1.12,1.21,1.14a12,12,0,0,0,7.93-2.17c5-3.77,6.77-13.16,3.14-18.28a9.46,9.46,0,0,1-1.73-6.25c.66-18.31,2.34-36.54,3.61-54.81,1-13.88,1.91-27.77,1.6-41.69a130.08,130.08,0,0,0-2.74-25.71c-2.08-9.26-6.36-16.93-14.49-22.3-5.4-3.56-10.56-7.5-15.79-11.32a120.07,120.07,0,0,1-15.22-12.8c-5.32-5.45-9.74-11.46-11.48-19.06-.25-1.07-.74-1.25-1.65-1.06a37.19,37.19,0,0,1-7.89.38c-1.28,0-2.74-.92-3.73-.25s-.78,2.47-1.15,3.76c-1.8,6.31-5.38,11.55-9.72,16.33a113.82,113.82,0,0,1-15.87,13.87C34.6,151.6,28.82,155.62,23.27,160a28.29,28.29,0,0,0-9,12.43,72.14,72.14,0,0,0-4.16,18.66C8.66,204.21,9,217.4,9.74,230.58c.63,10.86,1.45,21.7,2.2,32.55.54,7.74,1.18,15.47,1.66,23.2.36,5.75.74,11.5.79,17.26a5.15,5.15,0,0,1-.85,3.41c-3.59,4.62-3.39,9.67-1.38,14.75,1.87,4.74,6.14,7.21,11.23,7,.94,0,1.4-.29,1.57-1.3.56-3.23,1.1-6.47,1.91-9.64a37.13,37.13,0,0,0,.8-9.74q-.18-12.72-.26-25.43c-.06-11.91-.47-23.82-.85-35.72-.64-20.54-.58-41.1-.59-61.66a7.2,7.2,0,0,1,.32-2.11,4.51,4.51,0,0,1,4.65-3.07,4.46,4.46,0,0,1,4.1,4,13.85,13.85,0,0,1,0,1.44c.07,12.4.11,24.79.2,37.19.06,7.51.11,15,.31,22.55.14,5.59.67,11.17.76,16.76.21,12.8.25,25.59.37,38.39,0,3.36.09,6.71.09,10.07,0,.9.28,1.36,1.24,1.29.55,0,1.12,0,1.68,0Zm-53,81.91a1.7,1.7,0,0,0,.53.2l46.56,0c1,0,1.52-.26,1.41-1.34a13.83,13.83,0,0,1,0-1.44V352.49c0-.48,0-1,0-1.44.07-.91-.27-1.3-1.22-1.27-1.76,0-3.52,0-5.28,0-1.52,0-3,0-4.56,0a3.53,3.53,0,0,1-.17-7,13.84,13.84,0,0,1,1.44,0H89.71a13.43,13.43,0,0,1,1.68,0,3.53,3.53,0,0,1,0,7,11.75,11.75,0,0,1-1.68,0c-3,0-5.92,0-8.88,0-1.73,0-1.73,0-1.78,1.66,0,.24,0,.48,0,.72v39.36c0,.4,0,.8,0,1.2,0,.76.23,1.22,1.08,1.17.48,0,1,0,1.44,0H125.3c2.6,0,2.57,0,2-2.67q-4.69-23.87-9.36-47.74c-1.35-6.89-2.68-13.8-4-20.69-.37-1.89-.4-1.88-2.26-1.91h-1q-36.24,0-72.47,0c-3.34,0-2.6-.49-3.24,2.73q-6.27,31.62-12.39,63.26A39.22,39.22,0,0,0,21.48,393.67ZM46.65,39.76c-.51.92-.92,1.61-1.28,2.32A47.74,47.74,0,0,0,42,77c2.35,8.65,6.79,16,14,21.52,10.56,8.06,23.85,8,34.44,0a34.53,34.53,0,0,0,9.18-10.34c7.9-13.81,8.6-28.14,3-42.91a5.63,5.63,0,0,0-1.85-2.44,20.57,20.57,0,0,1-5.43-6.29c-2.09-3.84-6-5.27-10.25-4.17a16.94,16.94,0,0,0-4.77,2.19A57,57,0,0,1,66.94,41C60.12,43.15,53.32,44,46.65,39.76Zm55,363.27c-2.48,0-5,0-7.44,0-1.7,0-1.76,0-1.66,1.69a118.58,118.58,0,0,0,1.7,13.55,47.74,47.74,0,0,1-1,22.29,68.66,68.66,0,0,0-2.52,18.94c-.11,15.16,1.91,30.12,4.47,45a55.63,55.63,0,0,1,.36,16.94A79.67,79.67,0,0,1,93.38,531a14.34,14.34,0,0,0,.28,9,3.36,3.36,0,0,0,3.64,2.49c1.51-.1,3,0,4.55,0,2.38,0,2.69-.31,3.18-2.6.56-2.65.07-5.24-.24-7.86a62.39,62.39,0,0,1,.49-18.85c.79-4.26,2.46-8.26,3.57-12.42a132.36,132.36,0,0,0,4.16-30.8,99.23,99.23,0,0,0-3-28.49,42,42,0,0,1-.81-16.9,160.57,160.57,0,0,0,1.45-19.34c0-2.13,0-2.14-2-2.15Zm-54.23,0c-2.48,0-5,0-7.44,0-1.16,0-1.7.2-1.68,1.56a126,126,0,0,0,1.22,17.68,49.42,49.42,0,0,1-.93,20.68,75.68,75.68,0,0,0-2.27,13.69,127.55,127.55,0,0,0,0,21.32,115.32,115.32,0,0,0,5.47,28.38,50.56,50.56,0,0,1,2.3,9.78,64,64,0,0,1-.32,18.39,14.62,14.62,0,0,0,.37,6.41,1.9,1.9,0,0,0,2.08,1.56c1.51-.08,3,0,4.55,0,3.23,0,4-.61,4.88-3.73a12.6,12.6,0,0,0,.41-2.59,20.6,20.6,0,0,0-1.11-7.3,51,51,0,0,1-1.43-23c2.33-13.79,4.34-27.63,4.61-41.65.15-8-.22-15.94-2.49-23.73a45.26,45.26,0,0,1-1.15-21.11c.87-4.71,1.46-9.47,1.86-14.25.17-2,.17-2-1.76-2.05C52.22,403,49.83,403,47.43,403Z"/><path class="cls-1" d="M100.17,204.25a4.93,4.93,0,0,1-4.83,4.89,4.87,4.87,0,1,1,0-9.74A4.88,4.88,0,0,1,100.17,204.25Z"/><path class="cls-1" d="M53.76,199.4a4.88,4.88,0,0,1,5,4.7,4.92,4.92,0,1,1-5-4.7Z"/></g></g></svg>