<svg xmlns="http://www.w3.org/2000/svg" viewBox="0 0 295.66 543.48"><defs><style>.cls-1{fill:#fff;}</style></defs><title>Risorsa 1</title><g id="Livello_2" data-name="Livello 2"><g id="Livello_1-2" data-name="Livello 1"><path class="cls-1" d="M113.87,32.23c-5.18-8.73-4.49-17.18,1.63-25.43,1.14,1.32,1.14,3,2,4.2.72-.22.58-.88.72-1.38a17.45,17.45,0,0,1,2.34-5.49A8.67,8.67,0,0,1,128.13,0a6,6,0,0,1-.7,2.16,14.46,14.46,0,0,0-1.17,4.13c-.27,3.27,1,5.39,4.1,6.48a20.71,20.71,0,0,0,8.29.76c4.09-.26,8-1.3,12.07-1.9a20.26,20.26,0,0,1,8.55.56,11.75,11.75,0,0,1,7.49,5.93c.22.42.45.84.7,1.25a6.74,6.74,0,0,0,2.24,1.76c1,.69,1.61-.32,2.33-.65,3.62-1.67,7.28-1.71,10,1.27,7.12,7.83,11.52,16.85,10.58,27.8a9.38,9.38,0,0,1-2.4,5.9,2.67,2.67,0,0,0-.51,2.43,60.41,60.41,0,0,1-.94,17.9c-2.26,10.6-7,19.87-15,27.28a2.4,2.4,0,0,0-.61,3.1c3.09,8.39,6.43,16.69,9.81,25,1,2.55,1.48,2.7,4.13,2.2,15.09-2.83,29.64-1.16,43.43,5.67,14.06,7,22.74,18.28,26.2,33.56a7.35,7.35,0,0,0,2,3.67,166.76,166.76,0,0,1,22.35,28.42c5.91,9.68,10.56,19.89,12.89,31,4.87,23.39-.7,44-17.13,61.31a88.93,88.93,0,0,1-43.15,25.59c-1.63.41-3.43.43-4.87,1.18s-1.61,2.8-2.56,4.17c-4.43,6.37-10.64,8.92-18.19,8.63a20.59,20.59,0,0,1-7.69-1.81c-.54.91-.13,1.68,0,2.39q5.61,28.08,11.26,56.16a13,13,0,0,1,.24,1.66,4.5,4.5,0,0,1-4.41,5.15c-2.43.19-2.43.19-2.44,2.67a94.72,94.72,0,0,1-1.87,20c-.43,1.94-1.45,3.87-1.36,5.77s1.33,3.55,1.95,5.36a72.63,72.63,0,0,1,3.56,20.24,131.36,131.36,0,0,1-4.69,43.66,50.07,50.07,0,0,1-6.6,14.82,1.94,1.94,0,0,0-.11,2.38,31.25,31.25,0,0,1,3.66,12.07,20.4,20.4,0,0,1-1,9.21c-1.76,4.8-5.13,7.13-10.22,7.14h-19c-5.78,0-9.78-2.56-11.86-8-2.87-7.49-1.69-14.64,2.64-21.24a4.69,4.69,0,0,0,.69-4.38,144.56,144.56,0,0,1-4.14-23.09,193.56,193.56,0,0,1-1.29-24.66c.1-8,.59-16,2.56-23.79a38.19,38.19,0,0,1,3.3-9,3.55,3.55,0,0,0,.41-2.5c-1.31-6.91-2.59-13.82-3.39-20.82-.17-1.5-.3-3-.39-4.54-.06-1-.41-1.38-1.46-1.37-5.6,0-11.2,0-16.8,0-.9,0-1.25.29-1.31,1.22a143.46,143.46,0,0,1-1.89,14.74c-.57,3.3-1.17,6.61-1.77,9.91a5.68,5.68,0,0,0,.5,3.9c2.75,5.32,3.91,11.13,4.64,17,1.64,13.26,1.1,26.5-.36,39.73a147.06,147.06,0,0,1-4.38,24.27,3.09,3.09,0,0,0,.68,2.83c4.15,6.15,5.54,12.83,3.56,20.08a14,14,0,0,1-2.28,4.73,11.25,11.25,0,0,1-9.4,4.91c-6.8,0-13.59,0-20.39,0A9.53,9.53,0,0,1,98.34,538c-2.12-4-2.12-8.31-1.53-12.64a30,30,0,0,1,3.36-10.19c.38-.7.77-1.27.17-2.15-4.57-6.65-6.84-14.21-8.57-22A134.14,134.14,0,0,1,89,451.91c.57-7.75,1.86-15.39,5.18-22.53a2.21,2.21,0,0,0,.15-1.82c-2.71-8-3.08-16.29-3.18-24.62v-.72c0-2.24.06-2.08-2.08-2.08H86.91c-4.08-.05-6-2.46-5-6.47.63-2.72,1.3-5.44,2-8.16q5.82-24.35,11.65-48.69c.14-.6.23-1.22.39-2.08a46.94,46.94,0,0,1-7.38,1.78c-9,.93-16.72-3.26-20.56-11.37a2.76,2.76,0,0,0-2.27-1.76,74.69,74.69,0,0,1-22.89-8.26c-10.92-6.07-20.85-13.4-28.59-23.37a65.06,65.06,0,0,1-14-46.17c.88-11.81,4.61-22.82,10-33.27,6.68-12.89,15.46-24.26,25.43-34.72a13.9,13.9,0,0,0,3.65-6.49c4.55-18.05,16.3-29.45,33.6-35.37a66.51,66.51,0,0,1,36.4-2.19,2.29,2.29,0,0,0,2.78-1.19,11.39,11.39,0,0,0,.8-1.74c3.25-8.16,6.33-16.39,9.36-24.63a2.6,2.6,0,0,0-.77-3.28C112.49,94,107.7,83.29,106.13,71a54.26,54.26,0,0,1,0-14.12,7.53,7.53,0,0,0-.35-3.29,19.09,19.09,0,0,1-.85-8.52,16.56,16.56,0,0,1,7-11.29c.32-.23.66-.45,1-.67S113.66,32.76,113.87,32.23Zm50.7,77.38a38.21,38.21,0,0,1-17,4,39.69,39.69,0,0,1-16.81-4.13c-.4,1-.72,1.84-1,2.66q-4.12,10.86-8.25,21.72a17.53,17.53,0,0,1-1.92,3.85,11.33,11.33,0,0,1-12.09,4.79,56.73,56.73,0,0,0-36.33,3.74c-12.42,5.52-20.41,14.92-23.23,28.31a15.19,15.19,0,0,1-4.3,8,152.6,152.6,0,0,0-19.16,23.62c-6.07,9.3-11,19.13-13.5,30-4.62,19.94-.5,37.82,13.21,53.11a82.35,82.35,0,0,0,34,22.63,45,45,0,0,0,8.09,2.18c.22-1,.39-2,.63-2.91a14.16,14.16,0,0,1,2.38-5.45,4.44,4.44,0,0,1,5-1.49,4.5,4.5,0,0,1,3,4,5.8,5.8,0,0,1-.86,2.95c-3.27,6.42.16,15.9,9.47,16.33,5.22.24,8.69-2.07,10.27-7,1.42-4.39,3.74-8.14,7.82-10.53a4,4,0,0,0,1.86-2.92c.73-3.64-1.75-7.46-5.58-8.67-3.08-1-5.84-.11-8.46,1.46a27.27,27.27,0,0,0-5.49,5,4.42,4.42,0,0,1-7.43-1A84,84,0,0,0,70.05,291c-8-10-16.48-19.59-27.23-26.85-3-2-2.9-5.7.12-7.79a101.07,101.07,0,0,0,13-11,97.07,97.07,0,0,0,12-13.66,16,16,0,0,0,3-6A4.35,4.35,0,0,1,75.65,222c2.29.1,3.84,1.51,4.25,4.1a73.58,73.58,0,0,0,6.64,20.18A69.29,69.29,0,0,0,96,261.48c1.91,2.28,4,4.45,6.76,5.63a4.84,4.84,0,0,1,3.13,4.88c.09,5,.26,10.07.38,15.11a5.38,5.38,0,0,1-.11,2.13c-.56,1.36.06,1.9,1.12,2.6A16.53,16.53,0,0,1,115,305.19a34.11,34.11,0,0,1-.5,5.32h66.42a2.33,2.33,0,0,0,.14-.56A6.17,6.17,0,0,0,181,309c-1.22-6.61,1-12,6.1-16.14,1.81-1.45,3.33-2.52,2.25-5,.22-5.43.45-10.86.46-16.3a4.18,4.18,0,0,1,2.49-4.08c3.77-1.61,6.41-4.47,8.75-7.64a82.89,82.89,0,0,0,14.36-31.62c.23-1,.26-2.07.56-3.05a4.3,4.3,0,0,1,4.53-3.17,4.21,4.21,0,0,1,4.17,3.33,16.23,16.23,0,0,0,3.6,7.21,116.11,116.11,0,0,0,24.08,23.6c3.59,2.61,3.64,6,0,8.47a62.31,62.31,0,0,0-8.1,6.36c-10.51,9.81-20.07,20.4-27.24,33-1.74,3.05-5.16,3.41-7.64.85-1-1-1.95-2.12-3-3.09a13.56,13.56,0,0,0-7-3.53,8.51,8.51,0,0,0-9.45,6.33,5.21,5.21,0,0,0,2.48,5.9,13.42,13.42,0,0,1,3.54,3.18,20.91,20.91,0,0,1,4,8.11,6.65,6.65,0,0,0,3.85,4.59,12.16,12.16,0,0,0,5.09,1.25c5.46.14,9.71-2.54,11.19-7.86a11.72,11.72,0,0,0-.89-8.81c-1.28-2.53-.6-5,1.63-6.22s4.68-.48,6.18,1.9a16.64,16.64,0,0,1,1.95,5.13c.63,2.63.61,2.63,3.33,1.92l.23-.07a80.8,80.8,0,0,0,37.89-22.93c13.77-14.49,18.7-31.8,15-51.51-1.94-10.26-6.09-19.64-11.41-28.55a159.28,159.28,0,0,0-23.47-29.65,8,8,0,0,1-2.25-4.36c-2.53-14.11-10.38-24.23-23.41-30.1a57.65,57.65,0,0,0-37-3.8,10.3,10.3,0,0,1-9.37-2.32,12.8,12.8,0,0,1-3.62-5c-.79-1.92-1.58-3.84-2.35-5.77C169.83,123,167.25,116.42,164.57,109.61Zm37,281.22a3.09,3.09,0,0,0-.11-1.65q-2.06-10.21-4.09-20.44-4.65-23.26-9.29-46.52c-.49-2.43-.51-2.44-2.82-2.44H111.13c-2.15,0-2.17,0-2.66,2.07q-8,33.54-16.06,67.09a3.35,3.35,0,0,0-.16,1.85,1.89,1.89,0,0,0,1.18.2h48.22c1.87,0,1.89,0,1.89-2.05q0-11.76,0-23.51c0-5,0-10.08,0-15.12,0-1.23-.32-1.71-1.6-1.67-2.56.08-5.12,0-7.68,0a11,11,0,0,1-1.91-.08,3.5,3.5,0,0,1,.26-7,13.84,13.84,0,0,1,1.44,0h28.79a10.45,10.45,0,0,1,1.68.05,3.49,3.49,0,0,1,.37,6.84,7.42,7.42,0,0,1-2.15.17c-3,0-5.91,0-8.87,0-.93,0-1.33.31-1.23,1.24,0,.4,0,.8,0,1.2v37.43c0,.48,0,1,0,1.44,0,.67.22,1.07,1,1,.48,0,1,0,1.44,0h44.39A4.9,4.9,0,0,0,201.58,390.83ZM121.28,39.92A7,7,0,0,0,120,42a47.75,47.75,0,0,0-3.41,35c2.39,8.82,6.93,16.3,14.33,21.83,10.34,7.72,23.26,7.72,33.67.09A34.52,34.52,0,0,0,174.31,88c7.82-13.74,8.5-28,2.92-42.69a5.6,5.6,0,0,0-1.81-2.46,21.54,21.54,0,0,1-5.59-6.48c-2-3.72-6-5.11-10.08-4.06a17.74,17.74,0,0,0-5,2.29,56.32,56.32,0,0,1-15.91,7.11c-5.92,1.49-11.7,1.65-17.14-1.69A1.23,1.23,0,0,0,121.28,39.92Zm60,360.22H168.83c-1.66,0-1.92-.27-1.77,1.79.24,3.43.74,6.83,1.29,10.22.87,5.28,1.81,10.55,2.75,15.82a5,5,0,0,1-.71,3.9,27.44,27.44,0,0,0-3.73,9.28,93.87,93.87,0,0,0-2.13,20.94,191,191,0,0,0,1.77,28c1,7.28,2.15,14.54,4.58,21.52a4.77,4.77,0,0,1-1.31,5.47,14,14,0,0,0-4.14,7.69,12.27,12.27,0,0,0,.5,7.31,3.1,3.1,0,0,0,3,2.27q9.6,0,19.2,0a1.84,1.84,0,0,0,2-1.65,13.14,13.14,0,0,0,.36-4.76,23.47,23.47,0,0,0-4.5-11.45c-1.73-2.3-1.58-4.39.43-6.47a24.38,24.38,0,0,0,4.25-6.34,52.19,52.19,0,0,0,3.34-9,121.72,121.72,0,0,0,3.73-45.14c-.67-6.53-2-12.95-5.36-18.75a4.45,4.45,0,0,1,0-4.36,25.36,25.36,0,0,0,1.86-5.68,92.74,92.74,0,0,0,1.67-19.32c0-1.08-.43-1.34-1.42-1.34C190.1,400.16,185.71,400.14,181.31,400.14Zm-66.43,0c-4.32,0-8.64,0-12.95,0-1.2,0-1.73.27-1.66,1.58.14,3,0,6.09.26,9.11.43,5.5,1,11,3.4,16.09a4.41,4.41,0,0,1-.38,4.35,27.21,27.21,0,0,0-2.47,5.44,67.38,67.38,0,0,0-3,16.94A128.05,128.05,0,0,0,99.52,483a81,81,0,0,0,5.25,19.13,26,26,0,0,0,4.62,7.52c2.43,2.59,2.56,4.37.48,7.19a22.37,22.37,0,0,0-4,9.64,14.6,14.6,0,0,0,.1,6,2.07,2.07,0,0,0,2.3,1.89q9.36-.09,18.71,0a3.12,3.12,0,0,0,3.16-2.09,11.26,11.26,0,0,0,.86-5.87,15,15,0,0,0-4.42-9.34,4.87,4.87,0,0,1-1.24-5.68,46.3,46.3,0,0,0,1.5-5,165.2,165.2,0,0,0,4-25.31c1-11.26,1.32-22.51-.21-33.75-.74-5.47-1.81-10.88-5-15.6A4.88,4.88,0,0,1,125,428c.36-2,.73-3.93,1.09-5.89,1.21-6.53,2.3-13.07,3-19.66.24-2.26.23-2.27-2-2.28ZM83.82,294.29A22.82,22.82,0,0,1,96.11,289c.84-.08,1.06-.45,1-1.23q-.24-6.23-.41-12.45a1.77,1.77,0,0,0-.91-1.54C91.33,270.67,88,266.51,85,262a99.54,99.54,0,0,1-10.35-20.46,4.82,4.82,0,0,0-1-2,147,147,0,0,1-20.47,20.67A172,172,0,0,1,83.82,294.29Zm158.85-33.92a147.89,147.89,0,0,1-20.55-20.65c-.68.26-.67.71-.81,1.07a101.54,101.54,0,0,1-8.64,18.14c-3.49,5.67-7.35,11.06-13,14.89a1.76,1.76,0,0,0-.86,1.57q-.16,6.12-.43,12.22c0,.93.29,1.26,1.19,1.36a20.47,20.47,0,0,1,6.67,1.81,24,24,0,0,1,4.69,2.87c.63.5,1.09.59,1.52-.2a8.37,8.37,0,0,1,.53-.79,164.73,164.73,0,0,1,28.55-31.57A11.76,11.76,0,0,1,242.67,260.37Z"/><path class="cls-1" d="M166.8,234.61c-1.18,0-2.3.06-3.41,0a3,3,0,0,1-2.87-3,2.9,2.9,0,0,1,2.92-2.88,95.4,95.4,0,0,0,11.7-.91,47.4,47.4,0,0,0,14.15-4.24,27.33,27.33,0,0,0,15.22-19.2,10.93,10.93,0,0,1,.39-1.62,2.94,2.94,0,0,1,5.69,1.24,14.36,14.36,0,0,1-.51,2.58c-2.75,11-9.55,18.57-19.8,23.14C182.8,233.09,174.86,234.27,166.8,234.61Z"/><path class="cls-1" d="M128.75,234.62c-8.77-.44-17.31-1.77-25.25-5.77a32.93,32.93,0,0,1-18.18-23.32,7.21,7.21,0,0,1-.24-1.89A2.8,2.8,0,0,1,87.4,201a2.91,2.91,0,0,1,3.33,1.73,9.67,9.67,0,0,1,.44,1.62c2.12,9.74,8,16.27,17.06,20.16a51.65,51.65,0,0,0,16.23,3.84c2.47.22,4.94.28,7.41.41,2,.1,3.13,1.09,3.19,2.82s-1.12,3-3.2,3.06C130.82,234.65,129.78,234.62,128.75,234.62Z"/><path class="cls-1" d="M133,284.79a17.09,17.09,0,0,1-13.19-9.56,9.07,9.07,0,0,1-.9-4.19,2.81,2.81,0,0,1,2.55-3,2.94,2.94,0,0,1,3.35,2.39c1.25,5.09,4,7.52,9.37,8.36,2.58.4,3.83,2.72,2.5,4.68C135.94,284.61,134.81,284.9,133,284.79Z"/><path class="cls-1" d="M161.88,264.29c-2,0-3.23-1-3.4-2.64a2.84,2.84,0,0,1,2.76-3.24,12.13,12.13,0,0,0,6.69-2.94,8.17,8.17,0,0,0,2.94-5.06c.3-2.11,1.58-3.13,3.34-2.89s2.6,1.51,2.52,3.49a9.25,9.25,0,0,1-.24,1.65C175.26,258.65,168.13,264,161.88,264.29Z"/><path class="cls-1" d="M133.89,264.3c-6.58-.19-14.23-6.21-14.85-12.47a8.72,8.72,0,0,1-.12-1.43,2.91,2.91,0,0,1,2.67-2.89,2.82,2.82,0,0,1,3.18,2.31c.8,5.4,4.48,7.57,9.3,8.5a3.64,3.64,0,0,1,2.36,1,2.83,2.83,0,0,1,.52,3.12A3,3,0,0,1,133.89,264.3Z"/><path class="cls-1" d="M176.74,271.62a10.46,10.46,0,0,1-1.72,5.15,17.32,17.32,0,0,1-12.51,8,4.9,4.9,0,0,1-1.43,0,3,3,0,0,1-.47-5.77,8.24,8.24,0,0,1,1.42-.21,10.38,10.38,0,0,0,8.84-8.18A2.87,2.87,0,0,1,174,268C175.73,268.17,176.75,269.42,176.74,271.62Z"/><path class="cls-1" d="M126.73,210.53a3.67,3.67,0,0,1-3.78,3.54,3.57,3.57,0,0,1-3.56-3.71,3.68,3.68,0,0,1,3.74-3.58A3.77,3.77,0,0,1,126.73,210.53Z"/><path class="cls-1" d="M176.26,210.39a3.59,3.59,0,0,1-3.59,3.69A3.54,3.54,0,0,1,169,210.5a3.63,3.63,0,0,1,3.57-3.72A3.67,3.67,0,0,1,176.26,210.39Z"/></g></g></svg>